<svg width="77" height="19" viewBox="0 0 77 19" fill="none" xmlns="http://www.w3.org/2000/svg">
<path d="M0.0290451 18.4485L3.58777 4.86414L7.71357 4.4305L9.6558 11.7194L9.98587 11.6847L12.0044 3.97951L15.6764 3.59357L12.1176 17.1779L7.99184 17.6116L6.13332 10.0798L5.78263 10.1166L3.70101 18.0626L0.0290451 18.4485Z" fill="#F4F6FF"/>
<path d="M16.9765 16.9014C15.8075 17.0243 15.0043 16.8485 14.5669 16.3741C14.1295 15.8998 14.0579 15.1008 14.3523 13.9771C14.5626 13.1745 14.875 12.5432 15.2897 12.0834C15.7182 11.622 16.2509 11.2734 16.8878 11.0373C17.5247 10.8012 18.261 10.6198 19.0967 10.4929L21.217 10.1335L21.3327 9.69204C21.4203 9.35762 21.3716 9.13508 21.1866 9.02444C21.0153 8.91235 20.7372 8.87655 20.3521 8.91702C19.9395 8.96038 19.4684 9.0229 18.9388 9.10459C18.4092 9.18627 17.8916 9.27319 17.386 9.36536C16.8804 9.45753 16.4367 9.54319 16.0548 9.62235L16.5772 7.24539C16.9868 7.11128 17.4652 6.96994 18.0123 6.82137C18.5732 6.67136 19.1495 6.53925 19.7411 6.42503C20.3362 6.29743 20.8882 6.2069 21.3971 6.15341C22.3185 6.05657 23.083 6.07378 23.6906 6.20506C24.3119 6.33488 24.7296 6.6292 24.9438 7.08802C25.1717 7.54538 25.1682 8.2222 24.9334 9.11846L23.819 13.3723C23.8287 13.4884 23.8919 13.5793 24.0084 13.6451C24.1386 13.7095 24.2828 13.7464 24.4408 13.7558L23.7849 16.0297C23.4443 16.1045 23.0866 16.1681 22.7118 16.2206C22.3335 16.2863 22.0446 16.3167 21.8454 16.3116C21.4363 16.3416 21.1117 16.3042 20.8717 16.1993C20.6352 16.0811 20.4726 15.9616 20.3839 15.8408C20.1531 15.9561 19.85 16.0921 19.4746 16.2486C19.1028 16.3917 18.7 16.5251 18.2664 16.6488C17.8328 16.7724 17.4029 16.8566 16.9765 16.9014ZM18.5255 14.358C18.7318 14.3363 18.9365 14.2953 19.1395 14.2349C19.3598 14.1597 19.5681 14.0793 19.7644 13.9936C19.9745 13.9065 20.1415 13.8304 20.2656 13.7653L20.6966 12.12L19.1539 12.4187C18.8168 12.4802 18.543 12.6065 18.3324 12.7977C18.1391 12.9742 18.0039 13.2095 17.9268 13.5038C17.8497 13.7981 17.8571 14.025 17.9491 14.1844C18.0446 14.3305 18.2367 14.3884 18.5255 14.358Z" fill="#F4F6FF"/>
<path d="M27.7896 15.5308L30.5756 4.89602L27.1924 5.2516L27.9651 2.30197L38.2796 1.21787L37.5069 4.16751L34.2475 4.51008L31.4615 15.1448L27.7896 15.5308Z" fill="#F4F6FF"/>
<path d="M35.8655 14.6819L38.5096 4.58897L42.0371 4.21821L41.7533 5.30175C42.0189 5.10472 42.3275 4.89667 42.6791 4.67759C43.048 4.44369 43.4236 4.2351 43.806 4.05181C44.1883 3.86853 44.5361 3.74092 44.8491 3.66899L43.9923 6.93967C43.6965 6.99678 43.3627 7.09691 42.9908 7.24006C42.619 7.38322 42.2574 7.5383 41.906 7.70532C41.5684 7.87089 41.2687 8.01947 41.0069 8.15106L39.3931 14.3112L35.8655 14.6819Z" fill="#F4F6FF"/>
<path d="M46.2681 13.8227C45.0991 13.9456 44.2959 13.7698 43.8585 13.2955C43.421 12.8211 43.3495 12.0221 43.6439 10.8984C43.8542 10.0958 44.1666 9.46455 44.5813 9.00468C45.0098 8.54337 45.5425 8.19469 46.1794 7.95863C46.8163 7.72258 47.5526 7.54112 48.3883 7.41426L50.5086 7.05481L50.6243 6.61337C50.7119 6.27895 50.6632 6.05641 50.4782 5.94577C50.3069 5.83368 50.0288 5.79788 49.6437 5.83835C49.2311 5.88171 48.76 5.94424 48.2304 6.02592C47.7008 6.1076 47.1832 6.19452 46.6776 6.28669C46.172 6.37886 45.7283 6.46452 45.3464 6.54368L45.8688 4.16672C46.2784 4.03261 46.7568 3.89127 47.3039 3.7427C47.8648 3.59269 48.4411 3.46058 49.0327 3.34636C49.6278 3.21876 50.1798 3.12823 50.6887 3.07474C51.6101 2.9779 52.3746 2.99511 52.9821 3.12639C53.6035 3.25621 54.0212 3.55053 54.2354 4.00935C54.4633 4.46671 54.4598 5.14353 54.225 6.03979L53.1106 10.2937C53.1203 10.4097 53.1834 10.5007 53.2999 10.5665C53.4302 10.6308 53.5743 10.6677 53.7324 10.6771L53.0765 12.951C52.7359 13.0259 52.3782 13.0895 52.0034 13.1419C51.625 13.2077 51.3362 13.238 51.137 13.2329C50.7279 13.2629 50.4033 13.2255 50.1633 13.1206C49.9268 13.0024 49.7642 12.8829 49.6755 12.7621C49.4447 12.8775 49.1416 13.0134 48.7662 13.1699C48.3944 13.3131 47.9916 13.4465 47.558 13.5701C47.1244 13.6937 46.6944 13.7779 46.2681 13.8227ZM47.8171 11.2793C48.0234 11.2577 48.2281 11.2166 48.4311 11.1563C48.6514 11.0811 48.8597 11.0006 49.056 10.915C49.2661 10.8278 49.4331 10.7517 49.5572 10.6867L49.9882 9.0413L48.4455 9.34004C48.1084 9.40149 47.8346 9.52783 47.624 9.71908C47.4307 9.8955 47.2955 10.1309 47.2184 10.4252C47.1413 10.7194 47.1487 10.9463 47.2407 11.1058C47.3361 11.2518 47.5283 11.3097 47.8171 11.2793Z" fill="#F4F6FF"/>
<path d="M55.8434 12.5822L56.3214 2.71687L60.0966 2.32009L59.5297 9.38485L59.9835 9.33715L63.1909 1.99486L66.7597 1.61976L61.9496 11.9404L55.8434 12.5822Z" fill="#F4F6FF"/>
<path d="M69.6928 11.3607C68.4826 11.4879 67.5672 11.4085 66.9467 11.1225C66.3297 10.8231 65.9629 10.3088 65.8463 9.57952C65.7435 8.84883 65.8446 7.90158 66.1494 6.73778C66.4683 5.52047 66.9117 4.49172 67.4796 3.65151C68.0611 2.80987 68.7758 2.14936 69.6236 1.66999C70.4714 1.19063 71.466 0.890958 72.6075 0.770984C74.244 0.598974 75.3768 0.844161 76.0057 1.50655C76.6484 2.16749 76.7577 3.30727 76.3336 4.92589L75.7271 6.62874L69.4765 7.2857C69.35 7.81933 69.3687 8.20764 69.5324 8.4506C69.6996 8.68019 70.072 8.76464 70.6496 8.70393C71.0897 8.65767 71.5797 8.59967 72.1195 8.52992C72.6767 8.44534 73.2269 8.3615 73.7703 8.27837C74.3274 8.1938 74.7951 8.11862 75.1734 8.05284L74.6514 10.3517C74.2763 10.4562 73.8032 10.5774 73.2321 10.7155C72.661 10.8536 72.0658 10.9812 71.4467 11.0983C70.8276 11.2154 70.2429 11.3029 69.6928 11.3607ZM69.9868 5.26125L72.8748 4.9577C73.0535 4.27547 73.0679 3.81215 72.918 3.56774C72.7715 3.30995 72.4507 3.20707 71.9557 3.25911C71.4468 3.31259 71.0369 3.49877 70.726 3.81764C70.4186 4.12313 70.1722 4.60433 69.9868 5.26125Z" fill="#F4F6FF"/>
</svg>
